<?xml version="1.0" standalone="no"?>
<!DOCTYPE svg PUBLIC "-//W3C//DTD SVG 20010904//EN"
 "http://www.w3.org/TR/2001/REC-SVG-20010904/DTD/svg10.dtd">
<svg version="1.0" xmlns="http://www.w3.org/2000/svg"
 width="256.000000pt" height="256.000000pt" viewBox="0 0 256.000000 256.000000"
 preserveAspectRatio="xMidYMid meet">

<g transform="translate(0.000000,256.000000) scale(0.100000,-0.100000)"
fill="#000000" stroke="none">
<path d="M1080 2545 c-290 -56 -505 -167 -701 -364 -239 -238 -363 -521 -376
-856 -10 -267 66 -535 217 -761 67 -100 242 -276 340 -341 336 -225 742 -282
1117 -158 203 68 347 157 504 314 110 110 181 206 241 326 177 352 182 766 14
1121 -64 135 -137 237 -255 355 -172 173 -359 279 -599 340 -98 25 -142 31
-272 34 -109 3 -177 0 -230 -10z m842 -837 c39 -80 51 -134 51 -233 -1 -154
-59 -286 -172 -387 -53 -48 -179 -118 -211 -118 -19 0 -62 86 -79 160 -16 68
-13 199 5 261 48 160 158 286 302 345 31 13 62 24 68 24 6 0 22 -24 36 -52z
m-960 -442 c159 -29 306 -137 375 -276 48 -96 48 -110 -9 -138 -207 -103 -468
-52 -624 121 -50 56 -118 184 -112 214 6 33 168 87 273 91 11 1 55 -5 97 -12z"/>
</g>
</svg>
