<?xml version="1.0" encoding="UTF-8"?>
<!DOCTYPE svg PUBLIC "-//W3C//DTD SVG 1.1//EN" "http://www.w3.org/Graphics/SVG/1.1/DTD/svg11.dtd">
<svg xmlns="http://www.w3.org/2000/svg" version="1.1" width="3840px" height="2160px" style="shape-rendering:geometricPrecision; text-rendering:geometricPrecision; image-rendering:optimizeQuality; fill-rule:evenodd; clip-rule:evenodd" xmlns:xlink="http://www.w3.org/1999/xlink">
<g><path style="opacity:0.999" fill="#f0313b" d="M 56.5,534.5 C 1298.5,534.333 2540.5,534.5 3782.5,535C 3803.67,540.503 3816.17,554.003 3820,575.5C 3820.67,809.5 3820.67,1043.5 3820,1277.5C 3818.68,1287.46 3814.68,1296.13 3808,1303.5C 3799.8,1311.06 3790.8,1316.4 3781,1319.5C 3492.92,1318.66 3204.92,1318.33 2917,1318.5C 2915.13,1320.79 2912.96,1321.12 2910.5,1319.5C 2889.57,1322.91 2876.4,1335.57 2871,1357.5C 2870.98,1434.2 2870.32,1510.86 2869,1587.5C 2865.18,1602.25 2856.85,1612.92 2844,1619.5C 2840.73,1620.8 2837.73,1622.47 2835,1624.5C 2832.58,1623.51 2830.25,1623.85 2828,1625.5C 2220.71,1624.83 1613.38,1624.17 1006,1623.5C 1005.23,1623.64 1004.56,1623.98 1004,1624.5C 1000.9,1622.18 997.401,1620.68 993.5,1620C 988.804,1616.33 984.138,1612.66 979.5,1609C 979.833,1608.67 980.167,1608.33 980.5,1608C 976.449,1604.28 973.616,1599.78 972,1594.5C 970.656,1589.24 969.156,1584.07 967.5,1579C 968.462,1506.23 968.629,1432.4 968,1357.5C 962.831,1335.89 949.665,1323.23 928.5,1319.5C 925.873,1320.77 923.373,1320.43 921,1318.5C 634.363,1319.14 347.363,1319.47 60,1319.5C 41.925,1315.13 28.7584,1304.3 20.5,1287C 20.8333,1286.67 21.1667,1286.33 21.5,1286C 20.1657,1283.34 19.3324,1280.51 19,1277.5C 18.3333,1043.5 18.3333,809.5 19,575.5C 23.0442,553.961 35.5442,540.294 56.5,534.5 Z"/></g>
<g><path style="opacity:1" fill="#f7a8ab" d="M 683.5,733.5 C 782.665,732.501 881.999,732.167 981.5,732.5C 981.5,765.833 981.5,799.167 981.5,832.5C 896.5,832.5 811.5,832.5 726.5,832.5C 810.998,831.501 895.665,831.167 980.5,831.5C 980.5,798.833 980.5,766.167 980.5,733.5C 881.5,733.5 782.5,733.5 683.5,733.5 Z"/></g>
<g><path style="opacity:1" fill="#f8abae" d="M 1020.5,733.5 C 1152.33,732.5 1284.33,732.167 1416.5,732.5C 1416.5,750.833 1416.5,769.167 1416.5,787.5C 1415.5,769.674 1415.17,751.674 1415.5,733.5C 1283.83,733.5 1152.17,733.5 1020.5,733.5 Z"/></g>
<g><path style="opacity:1" fill="#f7a8ab" d="M 1949.5,743.5 C 1949.5,740.167 1949.5,736.833 1949.5,733.5C 1916.83,733.5 1884.17,733.5 1851.5,733.5C 1851.8,736.059 1851.47,738.393 1850.5,740.5C 1850.5,737.833 1850.5,735.167 1850.5,732.5C 1883.83,732.5 1917.17,732.5 1950.5,732.5C 1950.81,736.371 1950.48,740.038 1949.5,743.5 Z"/></g>
<g><path style="opacity:1" fill="#f7a8aa" d="M 2523.5,733.5 C 2622.33,732.501 2721.33,732.167 2820.5,732.5C 2820.5,765.833 2820.5,799.167 2820.5,832.5C 2728.17,832.5 2635.83,832.5 2543.5,832.5C 2635.33,831.501 2727.33,831.167 2819.5,831.5C 2819.5,798.833 2819.5,766.167 2819.5,733.5C 2720.83,733.5 2622.17,733.5 2523.5,733.5 Z"/></g>
<g><path style="opacity:1" fill="#fffefe" d="M 333.5,732.5 C 418.052,730.515 481.552,765.849 524,838.5C 551.694,894.908 553.694,952.241 530,1010.5C 507.36,1057.81 472.194,1092.31 424.5,1114C 384.863,1129.38 344.197,1132.71 302.5,1124C 232.752,1104.86 185.252,1061.36 160,993.5C 133.927,893.011 164.094,814.511 250.5,758C 276.438,743.439 304.105,734.939 333.5,732.5 Z"/></g>
<g><path style="opacity:1" fill="#fefefe" d="M 683.5,733.5 C 782.5,733.5 881.5,733.5 980.5,733.5C 980.5,766.167 980.5,798.833 980.5,831.5C 895.665,831.167 810.998,831.501 726.5,832.5C 700.323,838.347 686.323,854.68 684.5,881.5C 750.5,881.5 816.5,881.5 882.5,881.5C 882.333,900.836 882.5,920.17 883,939.5C 888.044,961.941 901.877,975.274 924.5,979.5C 942.993,980.497 961.659,980.83 980.5,980.5C 980.5,997.167 980.5,1013.83 980.5,1030.5C 972.347,1046.81 964.18,1063.14 956,1079.5C 947.833,1087.67 939.667,1095.83 931.5,1104C 915.5,1112 899.5,1120 883.5,1128C 784.167,1128.5 684.834,1128.67 585.5,1128.5C 585.5,1095.5 585.5,1062.5 585.5,1029.5C 677.834,1029.67 770.167,1029.5 862.5,1029C 880.737,1021.96 885.904,1009.46 878,991.5C 874.062,986.12 868.896,982.62 862.5,981C 770.167,980.5 677.834,980.333 585.5,980.5C 585.333,930.499 585.5,880.499 586,830.5C 594,814.5 602,798.5 610,782.5C 618.5,774 627,765.5 635.5,757C 651.399,748.883 667.399,741.05 683.5,733.5 Z"/></g>
<g><path style="opacity:1" fill="#fffefe" d="M 1020.5,733.5 C 1152.17,733.5 1283.83,733.5 1415.5,733.5C 1415.17,751.674 1415.5,769.674 1416.5,787.5C 1420.06,809.895 1432.72,824.395 1454.5,831C 1456.47,831.495 1458.47,831.662 1460.5,831.5C 1478.33,832.497 1496.33,832.83 1514.5,832.5C 1514.5,931.167 1514.5,1029.83 1514.5,1128.5C 1481.5,1128.5 1448.5,1128.5 1415.5,1128.5C 1415.67,1042.5 1415.5,956.499 1415,870.5C 1408.39,848.719 1393.89,836.052 1371.5,832.5C 1353.34,831.503 1335.01,831.17 1316.5,831.5C 1316.5,897.5 1316.5,963.5 1316.5,1029.5C 1283.83,1029.5 1251.17,1029.5 1218.5,1029.5C 1218.5,963.5 1218.5,897.5 1218.5,831.5C 1185.33,831.168 1152.33,831.502 1119.5,832.5C 1119.5,931.167 1119.5,1029.83 1119.5,1128.5C 1086.5,1128.5 1053.5,1128.5 1020.5,1128.5C 1020.5,996.833 1020.5,865.167 1020.5,733.5 Z"/></g>
<g><path style="opacity:1" fill="#fffefe" d="M 1850.5,740.5 C 1851.47,738.393 1851.8,736.059 1851.5,733.5C 1884.17,733.5 1916.83,733.5 1949.5,733.5C 1949.5,736.833 1949.5,740.167 1949.5,743.5C 1947.79,785.475 1933.96,822.809 1908,855.5C 1880.09,890.079 1844.76,913.413 1802,925.5C 1801.5,993.166 1801.33,1060.83 1801.5,1128.5C 1768.83,1128.5 1736.17,1128.5 1703.5,1128.5C 1704.16,1060.16 1703.5,992.158 1701.5,924.5C 1671.24,916.875 1644.58,902.708 1621.5,882C 1577.06,842.22 1554.73,792.386 1554.5,732.5C 1587.5,732.5 1620.5,732.5 1653.5,732.5C 1654.93,773.883 1673.93,804.049 1710.5,823C 1756.3,840.508 1795.8,831.341 1829,795.5C 1841.76,779.408 1848.92,761.074 1850.5,740.5 Z"/></g>
<g><path style="opacity:1" fill="#f67d7f" d="M 2198.5,733.5 C 2161.83,733.5 2125.17,733.5 2088.5,733.5C 2088.83,752.341 2088.5,771.007 2087.5,789.5C 2087.5,770.5 2087.5,751.5 2087.5,732.5C 2124.67,732.168 2161.67,732.502 2198.5,733.5 Z"/></g>
<g><path style="opacity:1" fill="#fffefe" d="M 2198.5,733.5 C 2242.92,735.724 2281.92,751.224 2315.5,780C 2345.59,805.762 2366.43,837.596 2378,875.5C 2384.57,898.459 2386.57,921.792 2384,945.5C 2381.35,963.457 2374.35,979.457 2363,993.5C 2357.32,999.015 2351.82,1004.68 2346.5,1010.5C 2372.58,1045.42 2385.25,1084.75 2384.5,1128.5C 2351.5,1128.5 2318.5,1128.5 2285.5,1128.5C 2284.7,1090.4 2268.04,1061.57 2235.5,1042C 2223.32,1035.38 2210.32,1031.38 2196.5,1030C 2160.5,1029.5 2124.5,1029.33 2088.5,1029.5C 2088.5,1062.5 2088.5,1095.5 2088.5,1128.5C 2055.5,1128.5 2022.5,1128.5 1989.5,1128.5C 1989.5,1029.5 1989.5,930.5 1989.5,831.5C 2008.5,831.667 2027.5,831.5 2046.5,831C 2064.59,827.581 2077.43,817.415 2085,800.5C 2086.15,796.896 2086.99,793.229 2087.5,789.5C 2088.5,771.007 2088.83,752.341 2088.5,733.5C 2125.17,733.5 2161.83,733.5 2198.5,733.5 Z"/></g>
<g><path style="opacity:1" fill="#fefefe" d="M 2523.5,733.5 C 2622.17,733.5 2720.83,733.5 2819.5,733.5C 2819.5,766.167 2819.5,798.833 2819.5,831.5C 2727.33,831.167 2635.33,831.501 2543.5,832.5C 2535.13,834.693 2528.97,839.693 2525,847.5C 2523.57,858.756 2523.07,870.09 2523.5,881.5C 2589.17,881.5 2654.83,881.5 2720.5,881.5C 2720.5,914.167 2720.5,946.833 2720.5,979.5C 2654.66,979.168 2589,979.501 2523.5,980.5C 2523.5,996.833 2523.5,1013.17 2523.5,1029.5C 2622.5,1029.5 2721.5,1029.5 2820.5,1029.5C 2820.5,1062.5 2820.5,1095.5 2820.5,1128.5C 2688.5,1128.5 2556.5,1128.5 2424.5,1128.5C 2424.5,1029.5 2424.5,930.5 2424.5,831.5C 2443.5,831.667 2462.5,831.5 2481.5,831C 2496.14,828.374 2507.64,820.874 2516,808.5C 2519.52,802.601 2521.86,796.268 2523,789.5C 2523.5,770.836 2523.67,752.17 2523.5,733.5 Z"/></g>
<g><path style="opacity:1" fill="#fffefe" d="M 3042.5,733.5 C 3080.17,733.5 3117.83,733.5 3155.5,733.5C 3155.17,751.674 3155.5,769.674 3156.5,787.5C 3160.87,812.536 3175.54,827.203 3200.5,831.5C 3218.33,832.497 3236.33,832.83 3254.5,832.5C 3254.5,931.167 3254.5,1029.83 3254.5,1128.5C 3221.83,1128.5 3189.17,1128.5 3156.5,1128.5C 3156.5,1095.5 3156.5,1062.5 3156.5,1029.5C 3107.17,1029.5 3057.83,1029.5 3008.5,1029.5C 3008.5,996.833 3008.5,964.167 3008.5,931.5C 3057.83,931.5 3107.17,931.5 3156.5,931.5C 3156.83,912.326 3156.5,893.326 3155.5,874.5C 3152.55,858.702 3144.21,846.535 3130.5,838C 3125.77,835.534 3120.77,833.867 3115.5,833C 3090.5,832.333 3065.5,832.333 3040.5,833C 3004.99,840.835 2979.82,861.335 2965,894.5C 2962.06,902.937 2960.06,911.603 2959,920.5C 2958.5,989.833 2958.33,1059.17 2958.5,1128.5C 2925.5,1128.5 2892.5,1128.5 2859.5,1128.5C 2859.33,1055.83 2859.5,983.166 2860,910.5C 2868.95,843.731 2902.12,792.898 2959.5,758C 2985.21,743.157 3012.87,734.99 3042.5,733.5 Z"/></g>
<g><path style="opacity:1" fill="#f9bebf" d="M 3042.5,733.5 C 3080.33,732.501 3118.33,732.168 3156.5,732.5C 3156.5,750.833 3156.5,769.167 3156.5,787.5C 3155.5,769.674 3155.17,751.674 3155.5,733.5C 3117.83,733.5 3080.17,733.5 3042.5,733.5 Z"/></g>
<g><path style="opacity:1" fill="#fffefe" d="M 3589.5,940.5 C 3590.48,937.713 3590.81,934.713 3590.5,931.5C 3623.17,931.5 3655.83,931.5 3688.5,931.5C 3688.5,935.5 3688.5,939.5 3688.5,943.5C 3684.81,997.704 3662.81,1042.87 3622.5,1079C 3590.06,1107.88 3552.06,1124.21 3508.5,1128C 3469.83,1128.5 3431.17,1128.67 3392.5,1128.5C 3405.91,1049.24 3372.91,1016.24 3293.5,1029.5C 3293.5,930.5 3293.5,831.5 3293.5,732.5C 3326.5,732.5 3359.5,732.5 3392.5,732.5C 3392.33,817.167 3392.5,901.834 3393,986.5C 3396.92,1009.75 3410.42,1023.92 3433.5,1029C 3455.17,1029.67 3476.83,1029.67 3498.5,1029C 3539.52,1024.64 3568.02,1003.47 3584,965.5C 3586.9,957.413 3588.74,949.08 3589.5,940.5 Z"/></g>
<g><path style="opacity:1" fill="#f0313b" d="M 331.5,832.5 C 381.837,828.075 418.003,848.409 440,893.5C 452.937,930.206 447.604,963.873 424,994.5C 393.676,1026.87 357.176,1036.71 314.5,1024C 266.043,1002.6 244.876,965.438 251,912.5C 258.599,878.156 278.432,853.656 310.5,839C 317.472,836.347 324.472,834.18 331.5,832.5 Z"/></g>
<g><path style="opacity:1" fill="#f58084" d="M 1119.5,832.5 C 1152.33,831.502 1185.33,831.168 1218.5,831.5C 1218.5,897.5 1218.5,963.5 1218.5,1029.5C 1217.5,964.002 1217.17,898.335 1217.5,832.5C 1184.83,832.5 1152.17,832.5 1119.5,832.5 Z"/></g>
<g><path style="opacity:1" fill="#f9c5c6" d="M 1371.5,832.5 C 1353.5,832.5 1335.5,832.5 1317.5,832.5C 1317.83,898.335 1317.5,964.002 1316.5,1029.5C 1316.5,963.5 1316.5,897.5 1316.5,831.5C 1335.01,831.17 1353.34,831.503 1371.5,832.5 Z"/></g>
<g><path style="opacity:1" fill="#f7a2a5" d="M 1460.5,831.5 C 1478.83,831.5 1497.17,831.5 1515.5,831.5C 1515.83,930.668 1515.5,1029.67 1514.5,1128.5C 1514.5,1029.83 1514.5,931.167 1514.5,832.5C 1496.33,832.83 1478.33,832.497 1460.5,831.5 Z"/></g>
<g><path style="opacity:1" fill="#f0313b" d="M 2126.5,832.5 C 2150.84,832.333 2175.17,832.5 2199.5,833C 2239.1,839.26 2266.27,861.093 2281,898.5C 2287.9,913.862 2283.4,924.362 2267.5,930C 2207.83,930.5 2148.17,930.667 2088.5,930.5C 2088.33,912.164 2088.5,893.83 2089,875.5C 2092.82,853.522 2105.32,839.189 2126.5,832.5 Z"/></g>
<g><path style="opacity:1" fill="#f9b7b9" d="M 3200.5,831.5 C 3218.83,831.5 3237.17,831.5 3255.5,831.5C 3255.83,930.668 3255.5,1029.67 3254.5,1128.5C 3254.5,1029.83 3254.5,931.167 3254.5,832.5C 3236.33,832.83 3218.33,832.497 3200.5,831.5 Z"/></g>
<g><path style="opacity:1" fill="#facdce" d="M 1701.5,924.5 C 1703.5,992.158 1704.16,1060.16 1703.5,1128.5C 1702.83,1060.6 1702.16,992.598 1701.5,924.5 Z"/></g>
<g><path style="opacity:1" fill="#facacb" d="M 3155.5,874.5 C 3156.5,893.326 3156.83,912.326 3156.5,931.5C 3107.17,931.5 3057.83,931.5 3008.5,931.5C 3008.5,964.167 3008.5,996.833 3008.5,1029.5C 3008.17,1029.5 3007.83,1029.5 3007.5,1029.5C 3007.5,996.5 3007.5,963.5 3007.5,930.5C 3056.83,930.5 3106.17,930.5 3155.5,930.5C 3155.5,911.833 3155.5,893.167 3155.5,874.5 Z"/></g>
<g><path style="opacity:1" fill="#fbcfd0" d="M 3688.5,943.5 C 3688.5,939.5 3688.5,935.5 3688.5,931.5C 3655.83,931.5 3623.17,931.5 3590.5,931.5C 3590.81,934.713 3590.48,937.713 3589.5,940.5C 3589.5,937.167 3589.5,933.833 3589.5,930.5C 3622.83,930.5 3656.17,930.5 3689.5,930.5C 3689.82,935.032 3689.48,939.366 3688.5,943.5 Z"/></g>
<g><path style="opacity:1" fill="#fad4d5" d="M 2720.5,881.5 C 2721.5,914.329 2721.83,947.329 2721.5,980.5C 2655.5,980.5 2589.5,980.5 2523.5,980.5C 2589,979.501 2654.66,979.168 2720.5,979.5C 2720.5,946.833 2720.5,914.167 2720.5,881.5 Z"/></g>
<g><path style="opacity:1" fill="#f8a5a8" d="M 924.5,979.5 C 943.5,979.5 962.5,979.5 981.5,979.5C 981.83,996.675 981.497,1013.67 980.5,1030.5C 980.5,1013.83 980.5,997.167 980.5,980.5C 961.659,980.83 942.993,980.497 924.5,979.5 Z"/></g>
<g><path style="opacity:1" fill="#f58285" d="M 3007.5,1029.5 C 3007.83,1029.5 3008.17,1029.5 3008.5,1029.5C 3057.83,1029.5 3107.17,1029.5 3156.5,1029.5C 3156.5,1062.5 3156.5,1095.5 3156.5,1128.5C 3155.5,1096 3155.17,1063.34 3155.5,1030.5C 3106,1030.83 3056.66,1030.5 3007.5,1029.5 Z"/></g>
<g><path style="opacity:1" fill="#f79fa2" d="M 1103.5,1332.5 C 1138,1331.5 1172.66,1331.17 1207.5,1331.5C 1207.5,1341.5 1207.5,1351.5 1207.5,1361.5C 1207.17,1361.5 1206.83,1361.5 1206.5,1361.5C 1206.5,1351.83 1206.5,1342.17 1206.5,1332.5C 1172.17,1332.5 1137.83,1332.5 1103.5,1332.5 Z"/></g>
<g><path style="opacity:1" fill="#f79b9e" d="M 1368.5,1332.5 C 1403,1331.5 1437.66,1331.17 1472.5,1331.5C 1472.5,1341.83 1472.5,1352.17 1472.5,1362.5C 1462.5,1362.5 1452.5,1362.5 1442.5,1362.5C 1451.99,1361.51 1461.65,1361.17 1471.5,1361.5C 1471.5,1351.83 1471.5,1342.17 1471.5,1332.5C 1437.17,1332.5 1402.83,1332.5 1368.5,1332.5 Z"/></g>
<g><path style="opacity:1" fill="#f79fa2" d="M 1494.5,1332.5 C 1529,1331.5 1563.66,1331.17 1598.5,1331.5C 1598.5,1341.5 1598.5,1351.5 1598.5,1361.5C 1598.17,1361.5 1597.83,1361.5 1597.5,1361.5C 1597.5,1351.83 1597.5,1342.17 1597.5,1332.5C 1563.17,1332.5 1528.83,1332.5 1494.5,1332.5 Z"/></g>
<g><path style="opacity:1" fill="#f79b9e" d="M 1745.5,1332.5 C 1780,1331.5 1814.66,1331.17 1849.5,1331.5C 1849.5,1341.83 1849.5,1352.17 1849.5,1362.5C 1839.5,1362.5 1829.5,1362.5 1819.5,1362.5C 1828.99,1361.51 1838.65,1361.17 1848.5,1361.5C 1848.5,1351.83 1848.5,1342.17 1848.5,1332.5C 1814.17,1332.5 1779.83,1332.5 1745.5,1332.5 Z"/></g>
<g><path style="opacity:1" fill="#f79fa2" d="M 2371.5,1332.5 C 2406,1331.5 2440.66,1331.17 2475.5,1331.5C 2475.5,1341.5 2475.5,1351.5 2475.5,1361.5C 2475.17,1361.5 2474.83,1361.5 2474.5,1361.5C 2474.5,1351.83 2474.5,1342.17 2474.5,1332.5C 2440.17,1332.5 2405.83,1332.5 2371.5,1332.5 Z"/></g>
<g><path style="opacity:1" fill="#f79b9e" d="M 2637.5,1332.5 C 2672,1331.5 2706.66,1331.17 2741.5,1331.5C 2741.5,1341.83 2741.5,1352.17 2741.5,1362.5C 2731.5,1362.5 2721.5,1362.5 2711.5,1362.5C 2720.99,1361.51 2730.65,1361.17 2740.5,1361.5C 2740.5,1351.83 2740.5,1342.17 2740.5,1332.5C 2706.17,1332.5 2671.83,1332.5 2637.5,1332.5 Z"/></g>
<g><path style="opacity:1" fill="#fffdfd" d="M 1103.5,1332.5 C 1137.83,1332.5 1172.17,1332.5 1206.5,1332.5C 1206.5,1342.17 1206.5,1351.83 1206.5,1361.5C 1186.83,1361.5 1167.17,1361.5 1147.5,1361.5C 1147.17,1371.68 1147.51,1381.68 1148.5,1391.5C 1162.83,1391.5 1177.17,1391.5 1191.5,1391.5C 1191.5,1401.17 1191.5,1410.83 1191.5,1420.5C 1176.66,1420.17 1161.99,1420.5 1147.5,1421.5C 1147.5,1431.17 1147.5,1440.83 1147.5,1450.5C 1166.99,1451.5 1186.66,1451.83 1206.5,1451.5C 1206.5,1461.17 1206.5,1470.83 1206.5,1480.5C 1171.83,1480.5 1137.17,1480.5 1102.5,1480.5C 1102.17,1431 1102.5,1381.66 1103.5,1332.5 Z"/></g>
<g><path style="opacity:1" fill="#fffdfd" d="M 1302.5,1480.5 C 1302.5,1470.5 1302.5,1460.5 1302.5,1450.5C 1297.5,1450.5 1292.5,1450.5 1287.5,1450.5C 1287.5,1440.83 1287.5,1431.17 1287.5,1421.5C 1282.5,1421.5 1277.5,1421.5 1272.5,1421.5C 1272.5,1441.17 1272.5,1460.83 1272.5,1480.5C 1257.5,1480.5 1242.5,1480.5 1227.5,1480.5C 1227.33,1431.17 1227.5,1381.83 1228,1332.5C 1242.76,1331.51 1257.59,1331.18 1272.5,1331.5C 1272.5,1341.5 1272.5,1351.5 1272.5,1361.5C 1277.5,1361.5 1282.5,1361.5 1287.5,1361.5C 1287.5,1371.5 1287.5,1381.5 1287.5,1391.5C 1292.5,1391.5 1297.5,1391.5 1302.5,1391.5C 1302.5,1371.5 1302.5,1351.5 1302.5,1331.5C 1317.17,1331.5 1331.83,1331.5 1346.5,1331.5C 1346.5,1381.17 1346.5,1430.83 1346.5,1480.5C 1331.83,1480.5 1317.17,1480.5 1302.5,1480.5 Z"/></g>
<g><path style="opacity:1" fill="#fefefe" d="M 1368.5,1332.5 C 1402.83,1332.5 1437.17,1332.5 1471.5,1332.5C 1471.5,1342.17 1471.5,1351.83 1471.5,1361.5C 1461.65,1361.17 1451.99,1361.51 1442.5,1362.5C 1442.5,1401.83 1442.5,1441.17 1442.5,1480.5C 1427.83,1480.5 1413.17,1480.5 1398.5,1480.5C 1398.5,1440.83 1398.5,1401.17 1398.5,1361.5C 1388.5,1361.5 1378.5,1361.5 1368.5,1361.5C 1367.17,1351.83 1367.17,1342.17 1368.5,1332.5 Z"/></g>
<g><path style="opacity:1" fill="#fffdfd" d="M 1494.5,1332.5 C 1528.83,1332.5 1563.17,1332.5 1597.5,1332.5C 1597.5,1342.17 1597.5,1351.83 1597.5,1361.5C 1577.83,1361.5 1558.17,1361.5 1538.5,1361.5C 1538.17,1371.68 1538.51,1381.68 1539.5,1391.5C 1553.83,1391.5 1568.17,1391.5 1582.5,1391.5C 1582.5,1401.17 1582.5,1410.83 1582.5,1420.5C 1567.66,1420.17 1552.99,1420.5 1538.5,1421.5C 1538.5,1431.17 1538.5,1440.83 1538.5,1450.5C 1557.99,1451.5 1577.66,1451.83 1597.5,1451.5C 1597.5,1461.17 1597.5,1470.83 1597.5,1480.5C 1562.83,1480.5 1528.17,1480.5 1493.5,1480.5C 1493.17,1431 1493.5,1381.66 1494.5,1332.5 Z"/></g>
<g><path style="opacity:1" fill="#fffdfd" d="M 1619.5,1332.5 C 1653.83,1332.5 1688.17,1332.5 1722.5,1332.5C 1722.5,1352.17 1722.5,1371.83 1722.5,1391.5C 1717.83,1391.5 1713.17,1391.5 1708.5,1391.5C 1708.5,1396.17 1708.5,1400.83 1708.5,1405.5C 1712.97,1406.49 1717.64,1406.82 1722.5,1406.5C 1722.5,1431.17 1722.5,1455.83 1722.5,1480.5C 1707.83,1480.5 1693.17,1480.5 1678.5,1480.5C 1678.5,1460.83 1678.5,1441.17 1678.5,1421.5C 1673.5,1421.5 1668.5,1421.5 1663.5,1421.5C 1663.5,1441.17 1663.5,1460.83 1663.5,1480.5C 1648.5,1480.5 1633.5,1480.5 1618.5,1480.5C 1618.17,1431 1618.5,1381.66 1619.5,1332.5 Z"/></g>
<g><path style="opacity:1" fill="#f7a5a8" d="M 1619.5,1332.5 C 1654,1331.5 1688.66,1331.17 1723.5,1331.5C 1723.83,1351.67 1723.5,1371.67 1722.5,1391.5C 1722.5,1371.83 1722.5,1352.17 1722.5,1332.5C 1688.17,1332.5 1653.83,1332.5 1619.5,1332.5 Z"/></g>
<g><path style="opacity:1" fill="#fefefe" d="M 1745.5,1332.5 C 1779.83,1332.5 1814.17,1332.5 1848.5,1332.5C 1848.5,1342.17 1848.5,1351.83 1848.5,1361.5C 1838.65,1361.17 1828.99,1361.51 1819.5,1362.5C 1819.5,1401.83 1819.5,1441.17 1819.5,1480.5C 1804.83,1480.5 1790.17,1480.5 1775.5,1480.5C 1775.5,1440.83 1775.5,1401.17 1775.5,1361.5C 1765.5,1361.5 1755.5,1361.5 1745.5,1361.5C 1744.17,1351.83 1744.17,1342.17 1745.5,1332.5 Z"/></g>
<g><path style="opacity:1" fill="#fffdfd" d="M 1870.5,1332.5 C 1904.83,1332.5 1939.17,1332.5 1973.5,1332.5C 1973.5,1381.83 1973.5,1431.17 1973.5,1480.5C 1958.83,1480.5 1944.17,1480.5 1929.5,1480.5C 1929.5,1460.83 1929.5,1441.17 1929.5,1421.5C 1924.5,1421.5 1919.5,1421.5 1914.5,1421.5C 1914.5,1441.17 1914.5,1460.83 1914.5,1480.5C 1899.5,1480.5 1884.5,1480.5 1869.5,1480.5C 1869.17,1431 1869.5,1381.66 1870.5,1332.5 Z"/></g>
<g><path style="opacity:1" fill="#f7a6a9" d="M 1870.5,1332.5 C 1905,1331.5 1939.66,1331.17 1974.5,1331.5C 1974.83,1381.34 1974.5,1431 1973.5,1480.5C 1973.5,1431.17 1973.5,1381.83 1973.5,1332.5C 1939.17,1332.5 1904.83,1332.5 1870.5,1332.5 Z"/></g>
<g><path style="opacity:1" fill="#fffcfc" d="M 1995.5,1331.5 C 2010.17,1331.5 2024.83,1331.5 2039.5,1331.5C 2039.5,1381.17 2039.5,1430.83 2039.5,1480.5C 2024.5,1480.5 2009.5,1480.5 1994.5,1480.5C 1994.17,1430.76 1994.5,1381.09 1995.5,1331.5 Z"/></g>
<g><path style="opacity:1" fill="#fffdfd" d="M 2135.5,1480.5 C 2135.5,1470.5 2135.5,1460.5 2135.5,1450.5C 2130.5,1450.5 2125.5,1450.5 2120.5,1450.5C 2120.5,1440.83 2120.5,1431.17 2120.5,1421.5C 2115.5,1421.5 2110.5,1421.5 2105.5,1421.5C 2105.5,1441.17 2105.5,1460.83 2105.5,1480.5C 2090.5,1480.5 2075.5,1480.5 2060.5,1480.5C 2060.33,1431.17 2060.5,1381.83 2061,1332.5C 2075.76,1331.51 2090.59,1331.18 2105.5,1331.5C 2105.5,1341.5 2105.5,1351.5 2105.5,1361.5C 2110.5,1361.5 2115.5,1361.5 2120.5,1361.5C 2120.5,1371.5 2120.5,1381.5 2120.5,1391.5C 2125.5,1391.5 2130.5,1391.5 2135.5,1391.5C 2135.5,1371.5 2135.5,1351.5 2135.5,1331.5C 2150.17,1331.5 2164.83,1331.5 2179.5,1331.5C 2179.5,1381.17 2179.5,1430.83 2179.5,1480.5C 2164.83,1480.5 2150.17,1480.5 2135.5,1480.5 Z"/></g>
<g><path style="opacity:1" fill="#fffdfd" d="M 2304.5,1361.5 C 2305.49,1352.01 2305.83,1342.35 2305.5,1332.5C 2320.17,1332.5 2334.83,1332.5 2349.5,1332.5C 2349.5,1381.83 2349.5,1431.17 2349.5,1480.5C 2334.5,1480.5 2319.5,1480.5 2304.5,1480.5C 2304.5,1460.83 2304.5,1441.17 2304.5,1421.5C 2299.83,1421.5 2295.17,1421.5 2290.5,1421.5C 2290.5,1431.17 2290.5,1440.83 2290.5,1450.5C 2280.5,1450.5 2270.5,1450.5 2260.5,1450.5C 2260.5,1440.83 2260.5,1431.17 2260.5,1421.5C 2255.5,1421.5 2250.5,1421.5 2245.5,1421.5C 2245.5,1441.17 2245.5,1460.83 2245.5,1480.5C 2230.5,1480.5 2215.5,1480.5 2200.5,1480.5C 2200.33,1431.17 2200.5,1381.83 2201,1332.5C 2215.76,1331.51 2230.59,1331.18 2245.5,1331.5C 2245.5,1341.5 2245.5,1351.5 2245.5,1361.5C 2250.5,1361.5 2255.5,1361.5 2260.5,1361.5C 2260.5,1371.5 2260.5,1381.5 2260.5,1391.5C 2270.5,1391.5 2280.5,1391.5 2290.5,1391.5C 2290.5,1381.5 2290.5,1371.5 2290.5,1361.5C 2295.17,1361.5 2299.83,1361.5 2304.5,1361.5 Z"/></g>
<g><path style="opacity:1" fill="#f8acae" d="M 2349.5,1332.5 C 2334.83,1332.5 2320.17,1332.5 2305.5,1332.5C 2305.83,1342.35 2305.49,1352.01 2304.5,1361.5C 2304.5,1351.5 2304.5,1341.5 2304.5,1331.5C 2319.68,1331.17 2334.68,1331.5 2349.5,1332.5 Z"/></g>
<g><path style="opacity:1" fill="#fffdfd" d="M 2371.5,1332.5 C 2405.83,1332.5 2440.17,1332.5 2474.5,1332.5C 2474.5,1342.17 2474.5,1351.83 2474.5,1361.5C 2454.83,1361.5 2435.17,1361.5 2415.5,1361.5C 2415.17,1371.68 2415.51,1381.68 2416.5,1391.5C 2430.83,1391.5 2445.17,1391.5 2459.5,1391.5C 2459.5,1401.17 2459.5,1410.83 2459.5,1420.5C 2444.66,1420.17 2429.99,1420.5 2415.5,1421.5C 2415.5,1431.17 2415.5,1440.83 2415.5,1450.5C 2434.99,1451.5 2454.66,1451.83 2474.5,1451.5C 2474.5,1461.17 2474.5,1470.83 2474.5,1480.5C 2439.83,1480.5 2405.17,1480.5 2370.5,1480.5C 2370.17,1431 2370.5,1381.66 2371.5,1332.5 Z"/></g>
<g><path style="opacity:1" fill="#fffdfd" d="M 2571.5,1480.5 C 2571.5,1470.5 2571.5,1460.5 2571.5,1450.5C 2566.5,1450.5 2561.5,1450.5 2556.5,1450.5C 2556.5,1440.83 2556.5,1431.17 2556.5,1421.5C 2551.5,1421.5 2546.5,1421.5 2541.5,1421.5C 2541.5,1441.17 2541.5,1460.83 2541.5,1480.5C 2526.5,1480.5 2511.5,1480.5 2496.5,1480.5C 2496.33,1431.17 2496.5,1381.83 2497,1332.5C 2511.76,1331.51 2526.59,1331.18 2541.5,1331.5C 2541.5,1341.5 2541.5,1351.5 2541.5,1361.5C 2546.5,1361.5 2551.5,1361.5 2556.5,1361.5C 2556.5,1371.5 2556.5,1381.5 2556.5,1391.5C 2561.5,1391.5 2566.5,1391.5 2571.5,1391.5C 2571.5,1371.5 2571.5,1351.5 2571.5,1331.5C 2586.17,1331.5 2600.83,1331.5 2615.5,1331.5C 2615.5,1381.17 2615.5,1430.83 2615.5,1480.5C 2600.83,1480.5 2586.17,1480.5 2571.5,1480.5 Z"/></g>
<g><path style="opacity:1" fill="#fefefe" d="M 2637.5,1332.5 C 2671.83,1332.5 2706.17,1332.5 2740.5,1332.5C 2740.5,1342.17 2740.5,1351.83 2740.5,1361.5C 2730.65,1361.17 2720.99,1361.51 2711.5,1362.5C 2711.5,1401.83 2711.5,1441.17 2711.5,1480.5C 2696.83,1480.5 2682.17,1480.5 2667.5,1480.5C 2667.5,1440.83 2667.5,1401.17 2667.5,1361.5C 2657.5,1361.5 2647.5,1361.5 2637.5,1361.5C 2636.17,1351.83 2636.17,1342.17 2637.5,1332.5 Z"/></g>
<g><path style="opacity:1" fill="#f47d81" d="M 1206.5,1361.5 C 1206.83,1361.5 1207.17,1361.5 1207.5,1361.5C 1188.01,1362.5 1168.34,1362.83 1148.5,1362.5C 1148.5,1372.17 1148.5,1381.83 1148.5,1391.5C 1147.51,1381.68 1147.17,1371.68 1147.5,1361.5C 1167.17,1361.5 1186.83,1361.5 1206.5,1361.5 Z"/></g>
<g><path style="opacity:1" fill="#f47d81" d="M 1597.5,1361.5 C 1597.83,1361.5 1598.17,1361.5 1598.5,1361.5C 1579.01,1362.5 1559.34,1362.83 1539.5,1362.5C 1539.5,1372.17 1539.5,1381.83 1539.5,1391.5C 1538.51,1381.68 1538.17,1371.68 1538.5,1361.5C 1558.17,1361.5 1577.83,1361.5 1597.5,1361.5 Z"/></g>
<g><path style="opacity:1" fill="#f47d81" d="M 2474.5,1361.5 C 2474.83,1361.5 2475.17,1361.5 2475.5,1361.5C 2456.01,1362.5 2436.34,1362.83 2416.5,1362.5C 2416.5,1372.17 2416.5,1381.83 2416.5,1391.5C 2415.51,1381.68 2415.17,1371.68 2415.5,1361.5C 2435.17,1361.5 2454.83,1361.5 2474.5,1361.5 Z"/></g>
<g><path style="opacity:1" fill="#fbc9ca" d="M 1368.5,1361.5 C 1378.5,1361.5 1388.5,1361.5 1398.5,1361.5C 1398.5,1401.17 1398.5,1440.83 1398.5,1480.5C 1397.5,1441.34 1397.17,1402 1397.5,1362.5C 1387.65,1362.83 1377.99,1362.49 1368.5,1361.5 Z"/></g>
<g><path style="opacity:1" fill="#f37074" d="M 1678.5,1362.5 C 1673.83,1362.5 1669.17,1362.5 1664.5,1362.5C 1664.5,1372.17 1664.5,1381.83 1664.5,1391.5C 1663.51,1381.68 1663.17,1371.68 1663.5,1361.5C 1668.69,1361.18 1673.69,1361.51 1678.5,1362.5 Z"/></g>
<g><path style="opacity:1" fill="#f0333c" d="M 1678.5,1362.5 C 1678.5,1372.17 1678.5,1381.83 1678.5,1391.5C 1673.83,1391.5 1669.17,1391.5 1664.5,1391.5C 1664.5,1381.83 1664.5,1372.17 1664.5,1362.5C 1669.17,1362.5 1673.83,1362.5 1678.5,1362.5 Z"/></g>
<g><path style="opacity:1" fill="#fbc9ca" d="M 1745.5,1361.5 C 1755.5,1361.5 1765.5,1361.5 1775.5,1361.5C 1775.5,1401.17 1775.5,1440.83 1775.5,1480.5C 1774.5,1441.34 1774.17,1402 1774.5,1362.5C 1764.65,1362.83 1754.99,1362.49 1745.5,1361.5 Z"/></g>
<g><path style="opacity:1" fill="#f37074" d="M 1929.5,1362.5 C 1924.83,1362.5 1920.17,1362.5 1915.5,1362.5C 1915.5,1372.17 1915.5,1381.83 1915.5,1391.5C 1914.51,1381.68 1914.17,1371.68 1914.5,1361.5C 1919.69,1361.18 1924.69,1361.51 1929.5,1362.5 Z"/></g>
<g><path style="opacity:1" fill="#f0333c" d="M 1929.5,1362.5 C 1929.5,1372.17 1929.5,1381.83 1929.5,1391.5C 1924.83,1391.5 1920.17,1391.5 1915.5,1391.5C 1915.5,1381.83 1915.5,1372.17 1915.5,1362.5C 1920.17,1362.5 1924.83,1362.5 1929.5,1362.5 Z"/></g>
<g><path style="opacity:1" fill="#fbc9ca" d="M 2637.5,1361.5 C 2647.5,1361.5 2657.5,1361.5 2667.5,1361.5C 2667.5,1401.17 2667.5,1440.83 2667.5,1480.5C 2666.5,1441.34 2666.17,1402 2666.5,1362.5C 2656.65,1362.83 2646.99,1362.49 2637.5,1361.5 Z"/></g>
<g><path style="opacity:1" fill="#f7a2a5" d="M 1708.5,1405.5 C 1713.5,1405.5 1718.5,1405.5 1723.5,1405.5C 1723.83,1430.67 1723.5,1455.67 1722.5,1480.5C 1722.5,1455.83 1722.5,1431.17 1722.5,1406.5C 1717.64,1406.82 1712.97,1406.49 1708.5,1405.5 Z"/></g>
<g><path style="opacity:1" fill="#facccd" d="M 1191.5,1391.5 C 1192.49,1401.32 1192.83,1411.32 1192.5,1421.5C 1177.5,1421.5 1162.5,1421.5 1147.5,1421.5C 1161.99,1420.5 1176.66,1420.17 1191.5,1420.5C 1191.5,1410.83 1191.5,1401.17 1191.5,1391.5 Z"/></g>
<g><path style="opacity:1" fill="#facccd" d="M 1582.5,1391.5 C 1583.49,1401.32 1583.83,1411.32 1583.5,1421.5C 1568.5,1421.5 1553.5,1421.5 1538.5,1421.5C 1552.99,1420.5 1567.66,1420.17 1582.5,1420.5C 1582.5,1410.83 1582.5,1401.17 1582.5,1391.5 Z"/></g>
<g><path style="opacity:1" fill="#facccd" d="M 2459.5,1391.5 C 2460.49,1401.32 2460.83,1411.32 2460.5,1421.5C 2445.5,1421.5 2430.5,1421.5 2415.5,1421.5C 2429.99,1420.5 2444.66,1420.17 2459.5,1420.5C 2459.5,1410.83 2459.5,1401.17 2459.5,1391.5 Z"/></g>
<g><path style="opacity:1" fill="#f9b7b9" d="M 1147.5,1450.5 C 1167.5,1450.5 1187.5,1450.5 1207.5,1450.5C 1207.83,1460.68 1207.49,1470.68 1206.5,1480.5C 1206.5,1470.83 1206.5,1461.17 1206.5,1451.5C 1186.66,1451.83 1166.99,1451.5 1147.5,1450.5 Z"/></g>
<g><path style="opacity:1" fill="#f47d81" d="M 1287.5,1450.5 C 1292.5,1450.5 1297.5,1450.5 1302.5,1450.5C 1302.5,1460.5 1302.5,1470.5 1302.5,1480.5C 1301.51,1471.01 1301.17,1461.35 1301.5,1451.5C 1296.64,1451.82 1291.97,1451.49 1287.5,1450.5 Z"/></g>
<g><path style="opacity:1" fill="#f9b7b9" d="M 1538.5,1450.5 C 1558.5,1450.5 1578.5,1450.5 1598.5,1450.5C 1598.83,1460.68 1598.49,1470.68 1597.5,1480.5C 1597.5,1470.83 1597.5,1461.17 1597.5,1451.5C 1577.66,1451.83 1557.99,1451.5 1538.5,1450.5 Z"/></g>
<g><path style="opacity:1" fill="#f47d81" d="M 2120.5,1450.5 C 2125.5,1450.5 2130.5,1450.5 2135.5,1450.5C 2135.5,1460.5 2135.5,1470.5 2135.5,1480.5C 2134.51,1471.01 2134.17,1461.35 2134.5,1451.5C 2129.64,1451.82 2124.97,1451.49 2120.5,1450.5 Z"/></g>
<g><path style="opacity:1" fill="#f9b7b9" d="M 2415.5,1450.5 C 2435.5,1450.5 2455.5,1450.5 2475.5,1450.5C 2475.83,1460.68 2475.49,1470.68 2474.5,1480.5C 2474.5,1470.83 2474.5,1461.17 2474.5,1451.5C 2454.66,1451.83 2434.99,1451.5 2415.5,1450.5 Z"/></g>
<g><path style="opacity:1" fill="#f47d81" d="M 2556.5,1450.5 C 2561.5,1450.5 2566.5,1450.5 2571.5,1450.5C 2571.5,1460.5 2571.5,1470.5 2571.5,1480.5C 2570.51,1471.01 2570.17,1461.35 2570.5,1451.5C 2565.64,1451.82 2560.97,1451.49 2556.5,1450.5 Z"/></g>
</svg>
