<?xml version="1.0" encoding="UTF-8"?>
<svg version="1.1" xmlns="http://www.w3.org/2000/svg" width="738" height="100">
<path d="M0 0 C8.91 0 17.82 0 27 0 C27 0.99 27 1.98 27 3 C30.3 3 33.6 3 37 3 C37 4.65 37 6.3 37 8 C40.3 8 43.6 8 47 8 C47 9.65 47 11.3 47 13 C48.65 13 50.3 13 52 13 C52 20.59 52 28.18 52 36 C50.35 36 48.7 36 47 36 C47.495 42.435 47.495 42.435 48 49 C49.98 49.495 49.98 49.495 52 50 C52 55.28 52 60.56 52 66 C50.35 66 48.7 66 47 66 C47 67.65 47 69.3 47 71 C45.35 71 43.7 71 42 71 C42 75.95 42 80.9 42 86 C40.68 86.33 39.36 86.66 38 87 C37.67 88.65 37.34 90.3 37 92 C35.35 92 33.7 92 32 92 C32 93.65 32 95.3 32 97 C30.35 97 28.7 97 27 97 C27 97.99 27 98.98 27 100 C18.09 100 9.18 100 0 100 C0 99.01 0 98.02 0 97 C-1.65 97 -3.3 97 -5 97 C-5 95.35 -5 93.7 -5 92 C-6.65 92 -8.3 92 -10 92 C-10 90.35 -10 88.7 -10 87 C-11.65 87 -13.3 87 -15 87 C-15 81.72 -15 76.44 -15 71 C-16.98 71 -18.96 71 -21 71 C-21 69.35 -21 67.7 -21 66 C-22.32 66 -23.64 66 -25 66 C-25 60.39 -25 54.78 -25 49 C-24.01 49 -23.02 49 -22 49 C-21.67 45.04 -21.34 41.08 -21 37 C-22.32 36.67 -23.64 36.34 -25 36 C-25 28.41 -25 20.82 -25 13 C-23.68 13 -22.36 13 -21 13 C-20.67 11.35 -20.34 9.7 -20 8 C-18.35 8 -16.7 8 -15 8 C-15 6.35 -15 4.7 -15 3 C-10.05 3 -5.1 3 0 3 C0 2.01 0 1.02 0 0 Z " fill="#201610" transform="translate(25,0)"/>
<path d="M0 0 C1.65 0 3.3 0 5 0 C5 1.65 5 3.3 5 5 C6.98 5 8.96 5 11 5 C11 4.34 11 3.68 11 3 C12.32 3 13.64 3 15 3 C15 3.66 15 4.32 15 5 C18.63 5 22.26 5 26 5 C26 11.6 26 18.2 26 25 C28.97 24.67 31.94 24.34 35 24 C36 25 36 25 36.09765625 28.59765625 C36.0909822 30.08596867 36.07902183 31.57426432 36.0625 33.0625 C36.05798828 33.82111328 36.05347656 34.57972656 36.04882812 35.36132812 C36.0370068 37.24091871 36.01907078 39.12046899 36 41 C34.35 41 32.7 41 31 41 C31 42.65 31 44.3 31 46 C29.35 46 27.7 46 26 46 C26 50.95 26 55.9 26 61 C24.02 61.495 24.02 61.495 22 62 C21.67 63.65 21.34 65.3 21 67 C19.35 67 17.7 67 16 67 C16 63.04 16 59.08 16 55 C14.02 55 12.04 55 10 55 C10 53.35 10 51.7 10 50 C-1.55 50 -13.1 50 -25 50 C-25.65036626 46.09780242 -26.1238268 43.07871285 -26.09765625 39.2578125 C-26.09443359 38.41992188 -26.09121094 37.58203125 -26.08789062 36.71875 C-26.07951172 35.8628125 -26.07113281 35.006875 -26.0625 34.125 C-26.05798828 33.24585938 -26.05347656 32.36671875 -26.04882812 31.4609375 C-26.03712337 29.30726197 -26.01919069 27.15362183 -26 25 C-24.35 25 -22.7 25 -21 25 C-21 28.3 -21 31.6 -21 35 C-17.37 35 -13.74 35 -10 35 C-10 38.3 -10 41.6 -10 45 C-5.05 45 -0.1 45 5 45 C5 43.35 5 41.7 5 40 C1.7 40 -1.6 40 -5 40 C-5 33.4 -5 26.8 -5 20 C-6.65 20 -8.3 20 -10 20 C-10 18.02 -10 16.04 -10 14 C-11.98 14 -13.96 14 -16 14 C-16 11.69 -16 9.38 -16 7 C-12.37 7 -8.74 7 -5 7 C-5 6.34 -5 5.68 -5 5 C-3.35 5 -1.7 5 0 5 C0 3.35 0 1.7 0 0 Z " fill="#CB885C" transform="translate(41,25)"/>
<path d="M0 0 C3.3 0 6.6 0 10 0 C10 1.65 10 3.3 10 5 C11.98 5 13.96 5 16 5 C16 3.35 16 1.7 16 0 C17.65 0 19.3 0 21 0 C21 2.31 21 4.62 21 7 C17.37 7 13.74 7 10 7 C10 9.31 10 11.62 10 14 C11.98 14 13.96 14 16 14 C16 15.98 16 17.96 16 20 C17.65 20 19.3 20 21 20 C21 26.6 21 33.2 21 40 C24.3 40 27.6 40 31 40 C31 41.65 31 43.3 31 45 C28.5211787 45.19389096 26.04219069 45.38040123 23.5625 45.5625 C22.50192383 45.64661133 22.50192383 45.64661133 21.41992188 45.73242188 C19.61572163 45.86190993 17.80768048 45.93521608 16 46 C15.505 45.505 15.505 45.505 15 45 C15.17763504 41.64785492 15.61986415 38.33674802 16 35 C12.37 35 8.74 35 5 35 C5 31.7 5 28.4 5 25 C3.35 25 1.7 25 0 25 C0.33 33.25 0.66 41.5 1 50 C12.55 50 24.1 50 36 50 C36 51.65 36 53.3 36 55 C37.98 55 39.96 55 42 55 C42 60.61 42 66.22 42 72 C40.35 72 38.7 72 37 72 C37 72.99 37 73.98 37 75 C28.09 75 19.18 75 10 75 C10 74.01 10 73.02 10 72 C8.35 72 6.7 72 5 72 C5 70.35 5 68.7 5 67 C3.35 67 1.7 67 0 67 C0 65.35 0 63.7 0 62 C-1.65 62 -3.3 62 -5 62 C-5 56.72 -5 51.44 -5 46 C-6.98 46 -8.96 46 -11 46 C-11 44.35 -11 42.7 -11 41 C-12.32 41 -13.64 41 -15 41 C-15 35.39 -15 29.78 -15 24 C-13.35 24 -11.7 24 -10 24 C-10 24.66 -10 25.32 -10 26 C-9.01 26 -8.02 26 -7 26 C-7 27.32 -7 28.64 -7 30 C-7.99 30 -8.98 30 -10 30 C-10 31.65 -10 33.3 -10 35 C-9.01 35 -8.02 35 -7 35 C-6.67 36.65 -6.34 38.3 -6 40 C-5.67 28.45 -5.34 16.9 -5 5 C-3.35 5 -1.7 5 0 5 C0 3.35 0 1.7 0 0 Z " fill="#905333" transform="translate(15,25)"/>
<path d="M0 0 C2.14082246 4.28164492 2.2351031 6.25783396 2.1953125 10.953125 C2.1924826 11.61334656 2.18965271 12.27356812 2.18673706 12.95379639 C2.17558415 15.05271897 2.15048946 17.15120742 2.125 19.25 C2.11496384 20.67707715 2.1058391 22.10416102 2.09765625 23.53125 C2.07566111 27.02097328 2.04116536 30.51044423 2 34 C0.02 34.495 0.02 34.495 -2 35 C-2.33 36.32 -2.66 37.64 -3 39 C-4.98 39.495 -4.98 39.495 -7 40 C-7.33 41.32 -7.66 42.64 -8 44 C-9.65 44 -11.3 44 -13 44 C-13 42.35 -13 40.7 -13 39 C-24.55 39 -36.1 39 -48 39 C-48.65036626 35.09780242 -49.1238268 32.07871285 -49.09765625 28.2578125 C-49.09443359 27.41992188 -49.09121094 26.58203125 -49.08789062 25.71875 C-49.07951172 24.8628125 -49.07113281 24.006875 -49.0625 23.125 C-49.05798828 22.24585937 -49.05347656 21.36671875 -49.04882812 20.4609375 C-49.03712337 18.30726197 -49.01919069 16.15362183 -49 14 C-47.35 14 -45.7 14 -44 14 C-44 17.3 -44 20.6 -44 24 C-40.37 24 -36.74 24 -33 24 C-33 27.3 -33 30.6 -33 34 C-28.05 34 -23.1 34 -18 34 C-18 32.35 -18 30.7 -18 29 C-19.65 29 -21.3 29 -23 29 C-23 27.35 -23 25.7 -23 24 C-18.05 24 -13.1 24 -8 24 C-8 19.38 -8 14.76 -8 10 C-6.35 9.67 -4.7 9.34 -3 9 C-2.01 6.03 -1.02 3.06 0 0 Z " fill="#D39164" transform="translate(64,36)"/>
<path d="M0 0 C8.58 0 17.16 0 26 0 C26 1.65 26 3.3 26 5 C27.98 5 29.96 5 32 5 C32 10.61 32 16.22 32 22 C30.35 22 28.7 22 27 22 C27 22.99 27 23.98 27 25 C18.09 25 9.18 25 0 25 C0 24.01 0 23.02 0 22 C-1.65 22 -3.3 22 -5 22 C-6.40333568 16.23073111 -5.67296616 10.81856895 -5 5 C-3.35 5 -1.7 5 0 5 C0 3.35 0 1.7 0 0 Z " fill="#7F422C" transform="translate(25,75)"/>
<path d="M0 0 C1.98 0 3.96 0 6 0 C6 0.99 6 1.98 6 3 C9.3 3 12.6 3 16 3 C16 4.65 16 6.3 16 8 C19.3 8 22.6 8 26 8 C26 9.65 26 11.3 26 13 C27.65 13 29.3 13 31 13 C31 20.59 31 28.18 31 36 C29.35 36 27.7 36 26 36 C26 40.29 26 44.58 26 49 C24.02 49.495 24.02 49.495 22 50 C22 43.4 22 36.8 22 30 C22.66 29.67 23.32 29.34 24 29 C24.65213292 26.97536745 24.65213292 26.97536745 25 25 C23.35 25 21.7 25 20 25 C20 23.35 20 21.7 20 20 C18.35 20 16.7 20 15 20 C15 18.35 15 16.7 15 15 C12.03 14.67 9.06 14.34 6 14 C5.67 11.03 5.34 8.06 5 5 C3.68 5.33 2.36 5.66 1 6 C0.67 10.29 0.34 14.58 0 19 C-1.32 19.33 -2.64 19.66 -4 20 C-5 19 -5 19 -5.09765625 15.83984375 C-5.08025391 13.90818359 -5.08025391 13.90818359 -5.0625 11.9375 C-5.05347656 10.64714844 -5.04445312 9.35679688 -5.03515625 8.02734375 C-5.02355469 7.02832031 -5.01195312 6.02929688 -5 5 C-3.35 4.67 -1.7 4.34 0 4 C0 2.68 0 1.36 0 0 Z " fill="#2D211A" transform="translate(46,0)"/>
<path d="M0 0 C3.3 0 6.6 0 10 0 C10 1.65 10 3.3 10 5 C8.35 5 6.7 5 5 5 C5 8.3 5 11.6 5 15 C8.3 15 11.6 15 15 15 C15 16.65 15 18.3 15 20 C8.73 20 2.46 20 -4 20 C-4 28.25 -4 36.5 -4 45 C-2.68 45 -1.36 45 0 45 C0 49.95 0 54.9 0 60 C-1.65 60 -3.3 60 -5 60 C-5 55.38 -5 50.76 -5 46 C-6.98 46 -8.96 46 -11 46 C-11 44.35 -11 42.7 -11 41 C-12.32 41 -13.64 41 -15 41 C-15 35.39 -15 29.78 -15 24 C-13.35 24 -11.7 24 -10 24 C-10 24.66 -10 25.32 -10 26 C-9.01 26 -8.02 26 -7 26 C-7 27.32 -7 28.64 -7 30 C-7.99 30 -8.98 30 -10 30 C-10 31.65 -10 33.3 -10 35 C-9.01 35 -8.02 35 -7 35 C-6.67 36.65 -6.34 38.3 -6 40 C-5.67 28.45 -5.34 16.9 -5 5 C-3.35 5 -1.7 5 0 5 C0 3.35 0 1.7 0 0 Z " fill="#743D23" transform="translate(15,25)"/>
<path d="M0 0 C1.32 0 2.64 0 4 0 C4 2.97 4 5.94 4 9 C12.91 9 21.82 9 31 9 C31 6.03 31 3.06 31 0 C32.32 0 33.64 0 35 0 C35.495 7.92 35.495 7.92 36 16 C34.35 16 32.7 16 31 16 C31 16.99 31 17.98 31 19 C22.09 19 13.18 19 4 19 C4 18.01 4 17.02 4 16 C2.35 16 0.7 16 -1 16 C-1.33 14.02 -1.66 12.04 -2 10 C-1.34 10 -0.68 10 0 10 C0 6.7 0 3.4 0 0 Z " fill="#251912" transform="translate(21,81)"/>
<path d="M0 0 C0.33 0 0.66 0 1 0 C1 6.6 1 13.2 1 20 C3.97 19.67 6.94 19.34 10 19 C11 20 11 20 11.09765625 23.59765625 C11.0909822 25.08596867 11.07902183 26.57426432 11.0625 28.0625 C11.05798828 28.82111328 11.05347656 29.57972656 11.04882812 30.36132812 C11.0370068 32.24091871 11.01907078 34.12046899 11 36 C9.35 36 7.7 36 6 36 C6 37.65 6 39.3 6 41 C4.35 41 2.7 41 1 41 C1 45.95 1 50.9 1 56 C-0.98 56.495 -0.98 56.495 -3 57 C-3.495 59.475 -3.495 59.475 -4 62 C-5.65 62 -7.3 62 -9 62 C-9.33 56.72 -9.66 51.44 -10 46 C-7.525 45.505 -7.525 45.505 -5 45 C-4.67 43.35 -4.34 41.7 -4 40 C-2.68 40 -1.36 40 0 40 C0 26.8 0 13.6 0 0 Z " fill="#D08559" transform="translate(66,30)"/>
<path d="M0 0 C1.32 0 2.64 0 4 0 C4.33 2.97 4.66 5.94 5 9 C7.97 9.33 10.94 9.66 14 10 C14 11.65 14 13.3 14 15 C15.65 15 17.3 15 19 15 C19 16.65 19 18.3 19 20 C20.65 20 22.3 20 24 20 C23.67 21.65 23.34 23.3 23 25 C22.34 25 21.68 25 21 25 C21 31.6 21 38.2 21 45 C20.67 45 20.34 45 20 45 C20 38.4 20 31.8 20 25 C16.37 25 12.74 25 9 25 C9 24.34 9 23.68 9 23 C7.68 23 6.36 23 5 23 C5 23.66 5 24.32 5 25 C3.02 25 1.04 25 -1 25 C-1 23.35 -1 21.7 -1 20 C-2.65 20 -4.3 20 -6 20 C-6 19.67 -6 19.34 -6 19 C-4.35 19 -2.7 19 -1 19 C-1 17.68 -1 16.36 -1 15 C-1.66 14.67 -2.32 14.34 -3 14 C-2.34 14 -1.68 14 -1 14 C-1.01160156 13.07316406 -1.02320313 12.14632813 -1.03515625 11.19140625 C-1.04417969 9.99386719 -1.05320312 8.79632813 -1.0625 7.5625 C-1.07410156 6.36753906 -1.08570313 5.17257812 -1.09765625 3.94140625 C-1 1 -1 1 0 0 Z " fill="#271B15" transform="translate(47,5)"/>
<path d="M0 0 C1.65 0 3.3 0 5 0 C5 3.3 5 6.6 5 10 C8.63 10 12.26 10 16 10 C16 13.3 16 16.6 16 20 C19.3 20 22.6 20 26 20 C26 21.65 26 23.3 26 25 C17.75 25 9.5 25 1 25 C0.34963374 21.09780242 -0.1238268 18.07871285 -0.09765625 14.2578125 C-0.09443359 13.41992188 -0.09121094 12.58203125 -0.08789062 11.71875 C-0.07951172 10.8628125 -0.07113281 10.006875 -0.0625 9.125 C-0.05798828 8.24585938 -0.05347656 7.36671875 -0.04882812 6.4609375 C-0.03712337 4.30726197 -0.01919069 2.15362183 0 0 Z " fill="#B57149" transform="translate(15,50)"/>
<path d="M0 0 C1.65 0 3.3 0 5 0 C5 6.6 5 13.2 5 20 C8.3 20 11.6 20 15 20 C15 21.65 15 23.3 15 25 C12.5211787 25.19389096 10.04219069 25.38040123 7.5625 25.5625 C6.85544922 25.61857422 6.14839844 25.67464844 5.41992188 25.73242188 C3.61572163 25.86190993 1.80768048 25.93521608 0 26 C-0.33 25.67 -0.66 25.34 -1 25 C-0.82236496 21.64785492 -0.38013585 18.33674802 0 15 C-3.63 15 -7.26 15 -11 15 C-11 11.7 -11 8.4 -11 5 C-7.37 5 -3.74 5 0 5 C0 3.35 0 1.7 0 0 Z " fill="#9E5331" transform="translate(31,45)"/>
<path d="M0 0 C4.95 0 9.9 0 15 0 C15 1.98 15 3.96 15 6 C13.35 6 11.7 6 10 6 C10 10.62 10 15.24 10 20 C6.7 20 3.4 20 0 20 C0 16.7 0 13.4 0 10 C-1.65 10 -3.3 10 -5 10 C-5 8.68 -5 7.36 -5 6 C-3.35 6 -1.7 6 0 6 C0 4.02 0 2.04 0 0 Z " fill="#A0603E" transform="translate(46,40)"/>
<path d="M0 0 C0.66 0 1.32 0 2 0 C2 1.65 2 3.3 2 5 C3.65 5 5.3 5 7 5 C7 12.59 7 20.18 7 28 C5.35 28 3.7 28 2 28 C2 32.29 2 36.58 2 41 C0.02 41.495 0.02 41.495 -2 42 C-2 35.4 -2 28.8 -2 22 C-1.34 21.67 -0.68 21.34 0 21 C0.65213292 18.97536745 0.65213292 18.97536745 1 17 C-0.65 17 -2.3 17 -4 17 C-3.67 15.35 -3.34 13.7 -3 12 C-1.68 12 -0.36 12 1 12 C0.67 8.04 0.34 4.08 0 0 Z " fill="#31231B" transform="translate(70,8)"/>
<path d="M0 0 C0.33 0 0.66 0 1 0 C1 8.25 1 16.5 1 25 C2.32 25 3.64 25 5 25 C5 29.95 5 34.9 5 40 C3.35 40 1.7 40 0 40 C0 35.38 0 30.76 0 26 C-1.98 26 -3.96 26 -6 26 C-6 24.35 -6 22.7 -6 21 C-7.32 21 -8.64 21 -10 21 C-10 15.39 -10 9.78 -10 4 C-8.35 4 -6.7 4 -5 4 C-5 4.66 -5 5.32 -5 6 C-4.01 6 -3.02 6 -2 6 C-2 7.32 -2 8.64 -2 10 C-2.99 10 -3.98 10 -5 10 C-5 11.65 -5 13.3 -5 15 C-4.01 15 -3.02 15 -2 15 C-1.67 16.65 -1.34 18.3 -1 20 C-0.67 13.4 -0.34 6.8 0 0 Z " fill="#854528" transform="translate(10,45)"/>
<path d="M0 0 C1.32 0 2.64 0 4 0 C4 0.66 4 1.32 4 2 C7.3 2 10.6 2 14 2 C14 5.3 14 8.6 14 12 C13.01 12 12.02 12 11 12 C10.67 13.65 10.34 15.3 10 17 C9.67 17 9.34 17 9 17 C9 15.35 9 13.7 9 12 C2.4 12 -4.2 12 -11 12 C-11 5 -11 5 -10 4 C-7.32941149 3.85884839 -4.67567762 3.95752893 -2 4 C-1.34 2.68 -0.68 1.36 0 0 Z " fill="#D19064" transform="translate(52,28)"/>
<path d="M0 0 C0.99 0 1.98 0 3 0 C3.33 8.25 3.66 16.5 4 25 C6.97 25 9.94 25 13 25 C13 26.65 13 28.3 13 30 C11.35 30 9.7 30 8 30 C8 33.63 8 37.26 8 41 C5.525 41.495 5.525 41.495 3 42 C3 40.35 3 38.7 3 37 C1.35 37 -0.3 37 -2 37 C-2 36.34 -2 35.68 -2 35 C-0.35 35 1.3 35 3 35 C3 30.05 3 25.1 3 20 C1.68 20 0.36 20 -1 20 C-1.02888514 16.85418577 -1.04675923 13.70840531 -1.0625 10.5625 C-1.07087891 9.66466797 -1.07925781 8.76683594 -1.08789062 7.84179688 C-1.09111328 6.98779297 -1.09433594 6.13378906 -1.09765625 5.25390625 C-1.10551147 4.06776733 -1.10551147 4.06776733 -1.11352539 2.85766602 C-1 1 -1 1 0 0 Z " fill="#995533" transform="translate(12,50)"/>
<path d="M0 0 C1.65 0 3.3 0 5 0 C5 3.3 5 6.6 5 10 C8.63 10 12.26 10 16 10 C16 11.65 16 13.3 16 15 C15.67 13.68 15.34 12.36 15 11 C11.7 11 8.4 11 5 11 C5 15.62 5 20.24 5 25 C3.68 25 2.36 25 1 25 C-0.10941367 19.67132017 -0.11548069 14.53718145 -0.0625 9.125 C-0.05798828 8.24585938 -0.05347656 7.36671875 -0.04882812 6.4609375 C-0.03712337 4.30726197 -0.01919069 2.15362183 0 0 Z " fill="#A35F3C" transform="translate(15,50)"/>
<path d="M0 0 C0 5.28 0 10.56 0 16 C-1.65 16 -3.3 16 -5 16 C-5 17.65 -5 19.3 -5 21 C-6.32 21 -7.64 21 -9 21 C-9 17.37 -9 13.74 -9 10 C-5.535 9.505 -5.535 9.505 -2 9 C-2 8.01 -2 7.02 -2 6 C-4.31 5.67 -6.62 5.34 -9 5 C-9 3.68 -9 2.36 -9 1 C-5.19495213 -0.79682816 -4.29399165 -1.07349791 0 0 Z " fill="#C1734D" transform="translate(77,50)"/>
<path d="M0 0 C8.58 0 17.16 0 26 0 C26 1.65 26 3.3 26 5 C17.42 5 8.84 5 0 5 C0 3.35 0 1.7 0 0 Z " fill="#904E30" transform="translate(25,85)"/>
<path d="M0 0 C3.3 0 6.6 0 10 0 C10 3.3 10 6.6 10 10 C8.35 10 6.7 10 5 10 C5 11.65 5 13.3 5 15 C3.35 15 1.7 15 0 15 C0 10.05 0 5.1 0 0 Z " fill="#D38E61" transform="translate(36,50)"/>
<path d="M0 0 C3.63 0 7.26 0 11 0 C11 3.3 11 6.6 11 10 C7.37 10 3.74 10 0 10 C0 6.7 0 3.4 0 0 Z " fill="#0F1216" transform="translate(20,50)"/>
<path d="M0 0 C1.65 0 3.3 0 5 0 C5 0.66 5 1.32 5 2 C5.99 2 6.98 2 8 2 C8 3.32 8 4.64 8 6 C7.01 6 6.02 6 5 6 C5 7.65 5 9.3 5 11 C5.99 11 6.98 11 8 11 C8 12.65 8 14.3 8 16 C5.36 16 2.72 16 0 16 C0 10.72 0 5.44 0 0 Z " fill="#7B371D" transform="translate(0,49)"/>
<path d="M0 0 C1.90608098 3.21182149 2.22266247 5.53882603 2.125 9.25 C2.10695313 10.14203125 2.08890625 11.0340625 2.0703125 11.953125 C2.03550781 12.96632813 2.03550781 12.96632813 2 14 C0.68 14 -0.64 14 -2 14 C-2 17.3 -2 20.6 -2 24 C-3.65 24 -5.3 24 -7 24 C-7 20.7 -7 17.4 -7 14 C-5.68 14 -4.36 14 -3 14 C-3 13.01 -3 12.02 -3 11 C-4.32 10.67 -5.64 10.34 -7 10 C-6.06414063 9.89365234 -6.06414063 9.89365234 -5.109375 9.78515625 C-2.80770679 9.19995468 -2.80770679 9.19995468 -1.953125 6.93359375 C-1.72109375 6.10988281 -1.4890625 5.28617188 -1.25 4.4375 C-1.00765625 3.61121094 -0.7653125 2.78492188 -0.515625 1.93359375 C-0.34546875 1.29550781 -0.1753125 0.65742187 0 0 Z " fill="#DC9B6F" transform="translate(64,36)"/>
<path d="M0 0 C8.25 0 16.5 0 25 0 C25 1.32 25 2.64 25 4 C16.75 4 8.5 4 0 4 C0 2.68 0 1.36 0 0 Z " fill="#30241C" transform="translate(26,76)"/>
<path d="M0 0 C3.3 0 6.6 0 10 0 C10 3.3 10 6.6 10 10 C6.7 10 3.4 10 0 10 C0 6.7 0 3.4 0 0 Z " fill="#111316" transform="translate(46,50)"/>
<path d="M0 0 C0.33 0 0.66 0 1 0 C1 6.6 1 13.2 1 20 C2.65 19.67 4.3 19.34 6 19 C6 19.66 6 20.32 6 21 C4.68 21 3.36 21 2 21 C2 22.32 2 23.64 2 25 C4.31 25.33 6.62 25.66 9 26 C9 26.99 9 27.98 9 29 C6.69 29.33 4.38 29.66 2 30 C2 33.63 2 37.26 2 41 C1.34 41 0.68 41 0 41 C0 27.47 0 13.94 0 0 Z " fill="#804E32" transform="translate(66,30)"/>
<path d="M0 0 C1.65 0 3.3 0 5 0 C5 1.65 5 3.3 5 5 C6.65 5 8.3 5 10 5 C9.67 6.65 9.34 8.3 9 10 C8.34 10 7.68 10 7 10 C7 16.6 7 23.2 7 30 C6.67 30 6.34 30 6 30 C5.67 23.4 5.34 16.8 5 10 C3.35 9.67 1.7 9.34 0 9 C0 6.03 0 3.06 0 0 Z " fill="#211610" transform="translate(61,20)"/>
<path d="M0 0 C5.28 0 10.56 0 16 0 C16 1.65 16 3.3 16 5 C13.5211787 5.19389096 11.04219069 5.38040123 8.5625 5.5625 C7.50192383 5.64661133 7.50192383 5.64661133 6.41992188 5.73242188 C4.61572163 5.86190993 2.80768048 5.93521608 1 6 C0.67 5.67 0.34 5.34 0 5 C0 3.35 0 1.7 0 0 Z " fill="#843F24" transform="translate(30,65)"/>
<path d="M0 0 C2.97 0.495 2.97 0.495 6 1 C6 8.92 6 16.84 6 25 C5.67 25 5.34 25 5 25 C4.67 21.7 4.34 18.4 4 15 C3.01 15 2.02 15 1 15 C1 13.35 1 11.7 1 10 C1.99 10 2.98 10 4 10 C4 8.68 4 7.36 4 6 C3.01 6 2.02 6 1 6 C0.67 4.02 0.34 2.04 0 0 Z " fill="#3B2214" transform="translate(4,45)"/>
<path d="M0 0 C4.95 0 9.9 0 15 0 C15 1.65 15 3.3 15 5 C10.05 5 5.1 5 0 5 C0 3.35 0 1.7 0 0 Z " fill="#281C15" transform="translate(46,40)"/>
<path d="M0 0 C4.95 0 9.9 0 15 0 C15 1.65 15 3.3 15 5 C10.05 5 5.1 5 0 5 C0 3.35 0 1.7 0 0 Z " fill="#221710" transform="translate(15,40)"/>
<path d="M0 0 C1.65 0.33 3.3 0.66 5 1 C4.67 3.64 4.34 6.28 4 9 C5.65 9 7.3 9 9 9 C9 9.33 9 9.66 9 10 C5.7 10 2.4 10 -1 10 C-1 9.34 -1 8.68 -1 8 C-2.32 8 -3.64 8 -5 8 C-5.33 8.66 -5.66 9.32 -6 10 C-6 8.02 -6 6.04 -6 4 C-4.02 4 -2.04 4 0 4 C0 2.68 0 1.36 0 0 Z " fill="#35241B" transform="translate(57,20)"/>
<path d="M0 0 C2.97 0 5.94 0 9 0 C9 1.65 9 3.3 9 5 C7.35 5 5.7 5 4 5 C4 6.65 4 8.3 4 10 C2.68 10 1.36 10 0 10 C0 6.7 0 3.4 0 0 Z " fill="#864A2C" transform="translate(11,35)"/>
<path d="M0 0 C4.62 0 9.24 0 14 0 C14 1.32 14 2.64 14 4 C9.05 4 4.1 4 -1 4 C-0.67 2.68 -0.34 1.36 0 0 Z " fill="#DF9D6E" transform="translate(47,35)"/>
<path d="M0 0 C0.66 0 1.32 0 2 0 C2 1.65 2 3.3 2 5 C3.65 5 5.3 5 7 5 C7 10.61 7 16.22 7 22 C6.67 22 6.34 22 6 22 C6 18.7 6 15.4 6 12 C4.35 11.67 2.7 11.34 1 11 C0.67 7.37 0.34 3.74 0 0 Z " fill="#3C2C24" transform="translate(70,8)"/>
<path d="M0 0 C8.58 0 17.16 0 26 0 C26 0.33 26 0.66 26 1 C17.75 1 9.5 1 1 1 C1 2.32 1 3.64 1 5 C2.65 5 4.3 5 6 5 C6 5.33 6 5.66 6 6 C4.35 6 2.7 6 1 6 C0.67 7.32 0.34 8.64 0 10 C0 8.68 0 7.36 0 6 C-1.32 6 -2.64 6 -4 6 C-4 9.3 -4 12.6 -4 16 C-4.33 16 -4.66 16 -5 16 C-5 12.37 -5 8.74 -5 5 C-3.35 5 -1.7 5 0 5 C0 3.35 0 1.7 0 0 Z " fill="#543322" transform="translate(25,75)"/>
<path d="M0 0 C3.63 0 7.26 0 11 0 C11 3.3 11 6.6 11 10 C7.37 10 3.74 10 0 10 C0 6.7 0 3.4 0 0 Z M1 1 C1 2.32 1 3.64 1 5 C2.32 5 3.64 5 5 5 C5 6.32 5 7.64 5 9 C6.65 9 8.3 9 10 9 C10 6.36 10 3.72 10 1 C7.03 1 4.06 1 1 1 Z " fill="#4B352C" transform="translate(20,50)"/>
<path d="M0 0 C3.3 0 6.6 0 10 0 C10 1.65 10 3.3 10 5 C6.7 5 3.4 5 0 5 C0 3.35 0 1.7 0 0 Z " fill="#BD7851" transform="translate(41,85)"/>
<path d="M0 0 C1.65 0 3.3 0 5 0 C5 3.3 5 6.6 5 10 C3.35 10 1.7 10 0 10 C0 6.7 0 3.4 0 0 Z " fill="#BFBABA" transform="translate(15,50)"/>
<path d="M0 0 C1.65 0 3.3 0 5 0 C5 3.3 5 6.6 5 10 C4.01 10 3.02 10 2 10 C1.67 11.65 1.34 13.3 1 15 C0.67 15 0.34 15 0 15 C0 10.05 0 5.1 0 0 Z " fill="#C07D53" transform="translate(61,30)"/>
<path d="M0 0 C0.33 0 0.66 0 1 0 C1 1.65 1 3.3 1 5 C2.32 5 3.64 5 5 5 C5 6.98 5 8.96 5 11 C3.35 11.33 1.7 11.66 0 12 C0 10.35 0 8.7 0 7 C-1.65 7 -3.3 7 -5 7 C-5 6.34 -5 5.68 -5 5 C-3.35 5 -1.7 5 0 5 C0 3.35 0 1.7 0 0 Z " fill="#9F5331" transform="translate(15,80)"/>
<path d="M0 0 C4.95 0 9.9 0 15 0 C11 4 11 4 8.203125 4.390625 C7.22859375 4.34421875 6.2540625 4.2978125 5.25 4.25 C4.26515625 4.21390625 3.2803125 4.1778125 2.265625 4.140625 C1.14414062 4.07101563 1.14414062 4.07101563 0 4 C0 2.68 0 1.36 0 0 Z " fill="#AD6441" transform="translate(15,46)"/>
<path d="M0 0 C3.63 0 7.26 0 11 0 C11 1.65 11 3.3 11 5 C7.7 5 4.4 5 1 5 C0.67 3.35 0.34 1.7 0 0 Z " fill="#B36C49" transform="translate(30,70)"/>
<path d="M0 0 C1.32 0 2.64 0 4 0 C4 2.97 4 5.94 4 9 C2.68 9.33 1.36 9.66 0 10 C-1 9 -1 9 -1.1328125 7.1875 C-1.13023438 6.465625 -1.12765625 5.74375 -1.125 5 C-1.12757812 4.278125 -1.13015625 3.55625 -1.1328125 2.8125 C-1 1 -1 1 0 0 Z " fill="#1C130E" transform="translate(47,5)"/>
<path d="M0 0 C0 1.65 0 3.3 0 5 C-2.97 5 -5.94 5 -9 5 C-9 3.68 -9 2.36 -9 1 C-5.57367167 -0.61798838 -3.61944899 -1.34053666 0 0 Z " fill="#DA8F65" transform="translate(77,50)"/>
<path d="M0 0 C1.65 0 3.3 0 5 0 C5 6.6 5 13.2 5 20 C4.67 20 4.34 20 4 20 C4 15.38 4 10.76 4 6 C2.68 6 1.36 6 0 6 C0 4.02 0 2.04 0 0 Z " fill="#AD643D" transform="translate(31,45)"/>
<path d="M0 0 C0.99 0 1.98 0 3 0 C3 2.31 3 4.62 3 7 C4.98 7 6.96 7 9 7 C9 7.33 9 7.66 9 8 C5.37 8 1.74 8 -2 8 C-1.125 1.125 -1.125 1.125 0 0 Z " fill="#AA6843" transform="translate(22,32)"/>
<path d="M0 0 C3.3 0 6.6 0 10 0 C10 1.32 10 2.64 10 4 C2.25 5.125 2.25 5.125 0 4 C0 2.68 0 1.36 0 0 Z " fill="#C78054" transform="translate(20,61)"/>
<path d="M0 0 C1.65 0 3.3 0 5 0 C5 0.66 5 1.32 5 2 C5.99 2 6.98 2 8 2 C8 3.32 8 4.64 8 6 C5.36 6 2.72 6 0 6 C0 4.02 0 2.04 0 0 Z " fill="#81381F" transform="translate(0,49)"/>
<path d="M0 0 C3.3 0 6.6 0 10 0 C10 1.32 10 2.64 10 4 C6.7 4 3.4 4 0 4 C0 2.68 0 1.36 0 0 Z " fill="#261B13" transform="translate(26,76)"/>
<path d="M0 0 C5.28 0 10.56 0 16 0 C16 1.65 16 3.3 16 5 C15.67 3.68 15.34 2.36 15 1 C11.7 1 8.4 1 5 1 C5 2.32 5 3.64 5 5 C3.35 5 1.7 5 0 5 C0 3.35 0 1.7 0 0 Z " fill="#AE6C48" transform="translate(15,60)"/>
<path d="M0 0 C1.32 0 2.64 0 4 0 C4 3.3 4 6.6 4 10 C2.68 10 1.36 10 0 10 C0 6.7 0 3.4 0 0 Z " fill="#E7E6E6" transform="translate(57,50)"/>
<path d="M0 0 C3.3 0 6.6 0 10 0 C10 1.32 10 2.64 10 4 C7.03 4 4.06 4 1 4 C0.67 2.68 0.34 1.36 0 0 Z " fill="#934E31" transform="translate(41,81)"/>
<path d="M0 0 C2.97 0 5.94 0 9 0 C9.33 1.32 9.66 2.64 10 4 C6.7 4 3.4 4 0 4 C0 2.68 0 1.36 0 0 Z " fill="#9A5635" transform="translate(26,86)"/>
<path d="M0 0 C4.95 0.33 9.9 0.66 15 1 C15 1.33 15 1.66 15 2 C11.7 2 8.4 2 5 2 C5 2.99 5 3.98 5 5 C3.35 5 1.7 5 0 5 C0 3.35 0 1.7 0 0 Z " fill="#E0976A" transform="translate(41,60)"/>
<path d="M0 0 C1.65 0 3.3 0 5 0 C5 1.65 5 3.3 5 5 C3.68 5 2.36 5 1 5 C1 8.3 1 11.6 1 15 C0.67 15 0.34 15 0 15 C0 10.05 0 5.1 0 0 Z " fill="#69361F" transform="translate(10,30)"/>
<path d="M0 0 C1.65 0 3.3 0 5 0 C5 1.32 5 2.64 5 4 C8.3 4 11.6 4 15 4 C15 4.33 15 4.66 15 5 C10.05 5 5.1 5 0 5 C0 3.35 0 1.7 0 0 Z " fill="#312017" transform="translate(10,20)"/>
<path d="M0 0 C0.33 0 0.66 0 1 0 C1 1.98 1 3.96 1 6 C-0.65 6 -2.3 6 -4 6 C-4 7.65 -4 9.3 -4 11 C-5.32 11 -6.64 11 -8 11 C-8 9.02 -8 7.04 -8 5 C-5.36 5 -2.72 5 0 5 C0 3.35 0 1.7 0 0 Z " fill="#DA8D63" transform="translate(76,60)"/>
<path d="M0 0 C0.33 1.32 0.66 2.64 1 4 C2.32 4 3.64 4 5 4 C5 2.68 5 1.36 5 0 C6.65 0 8.3 0 10 0 C10 1.65 10 3.3 10 5 C6.7 5 3.4 5 0 5 C0 3.35 0 1.7 0 0 Z " fill="#3C3E42" transform="translate(46,55)"/>
<path d="M0 0 C0.33 0 0.66 0 1 0 C1 1.65 1 3.3 1 5 C-0.65 5 -2.3 5 -4 5 C-4 6.32 -4 7.64 -4 9 C-5.65 9 -7.3 9 -9 9 C-9 7.35 -9 5.7 -9 4 C-6.03 4 -3.06 4 0 4 C0 2.68 0 1.36 0 0 Z " fill="#BE7850" transform="translate(45,41)"/>
<path d="M0 0 C3.63 0 7.26 0 11 0 C10.67 0.99 10.34 1.98 10 3 C7.03 3 4.06 3 1 3 C0.67 3.99 0.34 4.98 0 6 C0 4.02 0 2.04 0 0 Z " fill="#BD7B51" transform="translate(25,32)"/>
<path d="M0 0 C1.32 0 2.64 0 4 0 C4 4.95 4 9.9 4 15 C3.67 15 3.34 15 3 15 C3 13.35 3 11.7 3 10 C2.01 10 1.02 10 0 10 C0 8.35 0 6.7 0 5 C0.99 5 1.98 5 3 5 C3 3.68 3 2.36 3 1 C2.01 0.67 1.02 0.34 0 0 Z " fill="#5F2812" transform="translate(5,50)"/>
<path d="M0 0 C1.65 0 3.3 0 5 0 C5 3.3 5 6.6 5 10 C4.67 8.68 4.34 7.36 4 6 C2.68 5.67 1.36 5.34 0 5 C0 3.35 0 1.7 0 0 Z " fill="#BE7B55" transform="translate(41,50)"/>
<path d="M0 0 C1.98 0 3.96 0 6 0 C6 1.98 6 3.96 6 6 C3.03 5.505 3.03 5.505 0 5 C0 3.35 0 1.7 0 0 Z " fill="#2A1A10" transform="translate(4,40)"/>
<path d="M0 0 C3.3 0 6.6 0 10 0 C10 1.65 10 3.3 10 5 C8.35 5 6.7 5 5 5 C5 3.68 5 2.36 5 1 C3.35 1 1.7 1 0 1 C0 0.67 0 0.34 0 0 Z " fill="#A45A3A" transform="translate(36,65)"/>
<path d="M0 0 C3.3 0 6.6 0 10 0 C10 1.65 10 3.3 10 5 C8.35 5 6.7 5 5 5 C5 3.68 5 2.36 5 1 C3.35 1 1.7 1 0 1 C0 0.67 0 0.34 0 0 Z " fill="#2A2423" transform="translate(46,50)"/>
<path d="M0 0 C1.32 0 2.64 0 4 0 C4.33 1.65 4.66 3.3 5 5 C3.02 5 1.04 5 -1 5 C-0.67 3.35 -0.34 1.7 0 0 Z " fill="#BF764E" transform="translate(26,70)"/>
<path d="M0 0 C1.32 0 2.64 0 4 0 C4 2.31 4 4.62 4 7 C3.67 6.34 3.34 5.68 3 5 C2.34 5 1.68 5 1 5 C1 6.65 1 8.3 1 10 C0.67 10 0.34 10 0 10 C0 6.7 0 3.4 0 0 Z " fill="#D08557" transform="translate(62,50)"/>
<path d="M0 0 C1.65 0 3.3 0 5 0 C5 1.65 5 3.3 5 5 C3.35 5 1.7 5 0 5 C0 3.35 0 1.7 0 0 Z " fill="#3E4449" transform="translate(20,55)"/>
<path d="M0 0 C1.65 0 3.3 0 5 0 C5 1.65 5 3.3 5 5 C3.35 5 1.7 5 0 5 C0 3.35 0 1.7 0 0 Z " fill="#732D17" transform="translate(0,55)"/>
<path d="M0 0 C1.65 0 3.3 0 5 0 C5 1.65 5 3.3 5 5 C3.35 5 1.7 5 0 5 C0 3.35 0 1.7 0 0 Z " fill="#CA8659" transform="translate(36,50)"/>
<path d="M0 0 C1.65 0 3.3 0 5 0 C5 1.65 5 3.3 5 5 C3.35 5 1.7 5 0 5 C0 3.35 0 1.7 0 0 Z " fill="#965636" transform="translate(15,35)"/>
<path d="M0 0 C1.65 0 3.3 0 5 0 C5 1.65 5 3.3 5 5 C3.35 5 1.7 5 0 5 C0 3.35 0 1.7 0 0 Z " fill="#B76F4C" transform="translate(61,30)"/>
<path d="M0 0 C1.65 0 3.3 0 5 0 C5 1.65 5 3.3 5 5 C3.35 5 1.7 5 0 5 C0 3.35 0 1.7 0 0 Z " fill="#C8865B" transform="translate(56,30)"/>
<path d="M0 0 C1.65 0 3.3 0 5 0 C5 1.65 5 3.3 5 5 C3.35 5 1.7 5 0 5 C0 3.35 0 1.7 0 0 Z " fill="#83472A" transform="translate(15,30)"/>
<path d="M0 0 C1.65 0 3.3 0 5 0 C5 1.65 5 3.3 5 5 C3.35 5 1.7 5 0 5 C0 3.35 0 1.7 0 0 Z " fill="#A16342" transform="translate(41,25)"/>
<path d="M0 0 C1.65 0 3.3 0 5 0 C5 1.65 5 3.3 5 5 C3.35 4.67 1.7 4.34 0 4 C0 2.68 0 1.36 0 0 Z " fill="#B26A46" transform="translate(61,80)"/>
<path d="M0 0 C0.33 0 0.66 0 1 0 C1 2.97 1 5.94 1 9 C-0.32 9.33 -1.64 9.66 -3 10 C-3 8.35 -3 6.7 -3 5 C-2.34 5 -1.68 5 -1 5 C-0.67 3.35 -0.34 1.7 0 0 Z " fill="#452D1E" transform="translate(71,40)"/>
<path d="M0 0 C2.97 0.495 2.97 0.495 6 1 C6 2.32 6 3.64 6 5 C4.35 5 2.7 5 1 5 C0.67 3.35 0.34 1.7 0 0 Z " fill="#A6633F" transform="translate(30,70)"/>
<path d="M0 0 C1.32 0 2.64 0 4 0 C4 1.65 4 3.3 4 5 C2.35 5 0.7 5 -1 5 C-0.67 3.35 -0.34 1.7 0 0 Z " fill="#DD9A6A" transform="translate(62,65)"/>
<path d="M0 0 C1.32 0 2.64 0 4 0 C4 1.98 4 3.96 4 6 C2.68 5.67 1.36 5.34 0 5 C0 3.35 0 1.7 0 0 Z " fill="#8E4B2B" transform="translate(16,85)"/>
<path d="M0 0 C0.33 0 0.66 0 1 0 C1 3.3 1 6.6 1 10 C-0.65 10 -2.3 10 -4 10 C-4 9.01 -4 8.02 -4 7 C-2.68 7 -1.36 7 0 7 C0 4.69 0 2.38 0 0 Z " fill="#965938" transform="translate(30,40)"/>
<path d="M0 0 C1.65 0 3.3 0 5 0 C5 1.32 5 2.64 5 4 C3.35 4 1.7 4 0 4 C0 2.68 0 1.36 0 0 Z " fill="#CE8758" transform="translate(46,86)"/>
<path d="M0 0 C1.65 0 3.3 0 5 0 C5 1.32 5 2.64 5 4 C3.35 4 1.7 4 0 4 C0 2.68 0 1.36 0 0 Z " fill="#77351C" transform="translate(26,81)"/>
<path d="M0 0 C1.32 0 2.64 0 4 0 C4 1.65 4 3.3 4 5 C2.68 5 1.36 5 0 5 C0 3.35 0 1.7 0 0 Z " fill="#7A3F23" transform="translate(11,80)"/>
<path d="M0 0 C1.65 0 3.3 0 5 0 C5 1.32 5 2.64 5 4 C3.35 4 1.7 4 0 4 C0 2.68 0 1.36 0 0 Z " fill="#2E2118" transform="translate(36,76)"/>
<path d="M0 0 C1.65 0 3.3 0 5 0 C5 1.32 5 2.64 5 4 C3.35 4 1.7 4 0 4 C0 2.68 0 1.36 0 0 Z " fill="#19120C" transform="translate(26,76)"/>
<path d="M0 0 C1.65 0 3.3 0 5 0 C5 1.32 5 2.64 5 4 C3.35 4 1.7 4 0 4 C0 2.68 0 1.36 0 0 Z " fill="#CA855B" transform="translate(41,70)"/>
<path d="M0 0 C1.65 0 3.3 0 5 0 C5 1.32 5 2.64 5 4 C3.35 4 1.7 4 0 4 C0 2.68 0 1.36 0 0 Z " fill="#96472D" transform="translate(36,66)"/>
<path d="M0 0 C1.65 0 3.3 0 5 0 C5 1.32 5 2.64 5 4 C3.35 4 1.7 4 0 4 C0 2.68 0 1.36 0 0 Z " fill="#AF6946" transform="translate(25,66)"/>
<path d="M0 0 C1.65 0 3.3 0 5 0 C5 1.32 5 2.64 5 4 C3.35 4 1.7 4 0 4 C0 2.68 0 1.36 0 0 Z " fill="#191E24" transform="translate(25,55)"/>
<path d="M0 0 C1.32 0 2.64 0 4 0 C4 1.65 4 3.3 4 5 C2.68 5 1.36 5 0 5 C0 3.35 0 1.7 0 0 Z " fill="#CBC9C9" transform="translate(57,50)"/>
<path d="M0 0 C1.98 0 3.96 0 6 0 C6 0.99 6 1.98 6 3 C4.02 3.33 2.04 3.66 0 4 C0 2.68 0 1.36 0 0 Z " fill="#C77B53" transform="translate(68,51)"/>
<path d="M0 0 C1.65 0 3.3 0 5 0 C5 1.32 5 2.64 5 4 C3.35 4 1.7 4 0 4 C0 2.68 0 1.36 0 0 Z " fill="#B67048" transform="translate(51,46)"/>
<path d="M0 0 C1.88343932 3.76687864 2.22057835 5.02958963 2 9 C1.01 9 0.02 9 -1 9 C-0.67 6.03 -0.34 3.06 0 0 Z " fill="#D38C5E" transform="translate(64,36)"/>
<path d="M0 0 C1.32 0 2.64 0 4 0 C4 1.65 4 3.3 4 5 C2.68 5 1.36 5 0 5 C0 3.35 0 1.7 0 0 Z " fill="#7C4126" transform="translate(11,35)"/>
<path d="M0 0 C1.65 0 3.3 0 5 0 C5 1.32 5 2.64 5 4 C3.35 4 1.7 4 0 4 C0 2.68 0 1.36 0 0 Z " fill="#170D08" transform="translate(10,25)"/>
<path d="M0 0 C1.65 0 3.3 0 5 0 C5 1.32 5 2.64 5 4 C3.35 4 1.7 4 0 4 C0 2.68 0 1.36 0 0 Z " fill="#19110D" transform="translate(51,20)"/>
<path d="M0 0 C1.65 0 3.3 0 5 0 C5 1.32 5 2.64 5 4 C3.35 4 1.7 4 0 4 C0 2.68 0 1.36 0 0 Z " fill="#040404" transform="translate(36,0)"/>
<path d="M0 0 C1.32 0 2.64 0 4 0 C4 1.98 4 3.96 4 6 C3.67 5.34 3.34 4.68 3 4 C2.01 4 1.02 4 0 4 C0 2.68 0 1.36 0 0 Z " fill="#B16846" transform="translate(58,86)"/>
<path d="M0 0 C1.32 0 2.64 0 4 0 C4.33 1.32 4.66 2.64 5 4 C3.02 4 1.04 4 -1 4 C-0.67 2.68 -0.34 1.36 0 0 Z " fill="#A15E3B" transform="translate(31,86)"/>
<path d="M0 0 C2.31 0.33 4.62 0.66 7 1 C7 1.99 7 2.98 7 4 C5.68 4 4.36 4 3 4 C3 3.01 3 2.02 3 1 C2.01 0.67 1.02 0.34 0 0 Z " fill="#A95D3B" transform="translate(68,55)"/>
<path d="M0 0 C1.65 0 3.3 0 5 0 C5 0.99 5 1.98 5 3 C3.68 3 2.36 3 1 3 C0.67 3.66 0.34 4.32 0 5 C0 3.35 0 1.7 0 0 Z " fill="#8C563A" transform="translate(51,25)"/>
</svg>
